Coordinates
version=1
nRows=9
nColumns=36
inDegrees=yes

Units are S.I. units (second, meters, Newtons, ...)
If the header above contains a line with 'inDegrees', this indicates whether rotational values are in degrees (yes) or radians (no).

endheader
time	pelvis_tilt	pelvis_list	pelvis_rotation	pelvis_tx	pelvis_ty	pelvis_tz	hip_flexion_r	hip_adduction_r	hip_rotation_r	knee_angle_r	knee_angle_r_beta	ankle_angle_r	subtalar_angle_r	mtp_angle_r	hip_flexion_l	hip_adduction_l	hip_rotation_l	knee_angle_l	knee_angle_l_beta	ankle_angle_l	subtalar_angle_l	mtp_angle_l	lumbar_extension	lumbar_bending	lumbar_rotation	arm_flex_r	arm_add_r	arm_rot_r	elbow_flex_r	pro_sup_r	arm_flex_l	arm_add_l	arm_rot_l	elbow_flex_l	pro_sup_l
      0.00000000	      1.81209490	     -0.20566638	      6.66609165	     -0.20094197	      1.02280385	     -0.20919688	     20.39861787	      1.04125419	    -11.51467348	      0.32526179	      0.00567689	     10.20958220	     13.59022868	     -4.13406685	    -15.09899993	      2.42545781	      7.12529950	     13.16754290	      0.22981698	     21.26809707	      9.48150218	     -4.13406685	     -4.31681565	     -0.03410777	    -11.62960818	    -14.86190103	     -6.09993289	     -5.20673990	     29.25690004	    101.84052775	     10.00741691	    -17.24444077	      4.64023753	     59.98489394	     90.65027848
      0.01000000	      2.47648685	     -0.69473751	      6.92295589	     -0.18644355	      1.02251866	     -0.20843974	     19.14679281	      1.77011060	    -10.85744057	      0.44505868	      0.00776774	      8.95181088	     12.46672442	     -4.19031441	    -16.00461489	      1.59400447	      6.95861674	     14.30012520	      0.24958427	     20.98160097	      9.26388370	     -4.19031441	     -4.84679408	      0.60662025	    -11.79614016	    -14.75956003	     -6.19407732	     -5.13618034	     28.89637446	    101.90643020	      9.68151811	    -17.15669557	      4.73819886	     60.14934668	     90.91375911
      0.02000000	      2.78032959	     -1.05891480	      7.01314866	     -0.17197061	      1.02178088	     -0.20739192	     18.28424906	      2.46276003	     -8.79537987	      0.57520954	      0.01003930	      7.25313514	      9.20276269	     -4.31568685	    -16.51505841	      0.97173495	      6.70404852	     15.45950449	      0.26981925	     20.61150586	      9.26504093	     -4.31568685	     -4.97601653	      1.05454853	    -11.91600814	    -14.66998937	     -6.26821487	     -5.03339624	     28.53660835	    102.04733992	      9.05430597	    -16.99655198	      4.49778652	     60.45191560	     91.46643157
      0.03000000	      3.07476677	     -1.44987485	      7.09900984	     -0.15733183	      1.02121443	     -0.20628363	     17.48232562	      3.16947103	     -7.44652640	      0.79091639	      0.01380410	      5.82755820	      6.99746977	     -4.45243727	    -16.93232291	      0.31306312	      6.37679053	     16.75242549	      0.29238498	     19.97930205	      9.18869464	     -4.45243727	     -5.06207866	      1.52995653	    -11.98293909	    -14.61793014	     -6.34666864	     -4.97505688	     28.22685861	    102.12777162	      8.43864297	    -16.81434458	      4.31429818	     60.59098523	     92.00944462
      0.04000000	      3.38863493	     -1.85033116	      7.15043191	     -0.14248063	      1.02092779	     -0.20500161	     16.66718458	      3.91005890	     -6.41536498	      1.01983195	      0.01779943	      4.42857522	      5.17838987	     -4.59500597	    -17.27905782	     -0.38153050	      5.86724580	     18.18131426	      0.31732380	     19.06553136	      9.18618618	     -4.59500597	     -5.14873835	      2.00775242	    -12.00413488	    -14.55720352	     -6.40434179	     -4.92791598	     27.93856436	    102.15813797	      7.75412315	    -16.63400051	      4.14527626	     60.64273940	     92.53508793
      0.05000000	      3.70811554	     -2.24969949	      7.15222390	     -0.12749527	      1.02094572	     -0.20357545	     15.85278611	      4.66356899	     -5.55881069	      1.25334733	      0.02187504	      2.92275219	      3.57061760	     -4.74266443	    -17.50216643	     -1.10432332	      5.15022822	     19.79459561	      0.34548087	     17.84298189	      9.32715356	     -4.74266443	     -5.22445204	      2.47991268	    -11.98320775	    -14.46011646	     -6.47494321	     -4.84646980	     27.65110229	    102.14707932	      6.99115398	    -16.42107549	      3.97247092	     60.60831007	     93.04349713
      0.06000000	      4.03229948	     -2.63274460	      7.10148166	     -0.11242052	      1.02131956	     -0.20199490	     15.03094332	      5.40728642	     -4.87386274	      1.48964638	      0.02599923	      1.35581107	      2.22512072	     -4.89413526	    -17.56362262	     -1.84623634	      4.23327015	     21.66086669	      0.37805344	     16.30453180	      9.58698082	     -4.89413526	     -5.29903240	      2.92005712	    -11.89449322	    -14.33889305	     -6.53936899	     -4.70153056	     27.37355875	    102.09004132	      6.17615274	    -16.19182770	      3.80160123	     60.46588636	     93.51392998
      0.07000000	      4.38508625	     -2.99221509	      7.04002081	     -0.09733745	      1.02208981	     -0.20040519	     14.25671430	      6.06475713	     -4.80992963	      1.92200349	      0.03354529	      0.32726550	      2.05248767	     -4.92776165	    -17.46993584	     -2.58216618	      3.31882594	     23.78385982	      0.41510666	     14.34848202	      9.55742959	     -4.92776165	     -5.40203912	      3.34706621	    -11.71678307	    -14.24267846	     -6.58675585	     -4.69420296	     27.22876398	    102.01354780	      5.40937576	    -15.95314720	      3.83564702	     60.15638714	     93.54839740
      0.08000000	      4.68157715	     -3.36921320	      6.82838008	     -0.08240963	      1.02309585	     -0.19846715	     13.47265451	      6.82128200	     -3.70712429	      2.22899302	      0.03890327	     -1.58953138	      0.10371071	     -5.07231531	    -17.06911676	     -3.41049659	      1.98694935	     26.29352159	      0.45890852	     12.41259870	     10.21486883	     -5.07231531	     -5.47198942	      3.75942045	    -11.51604733	    -13.95895351	     -6.68900502	     -4.32575257	     26.90556272	    101.92220473	      4.46320465	    -15.65433199	      3.51296476	     59.83985658	     93.95982097
